# xmcd CD database file
#
# Track frame offsets:
#	150
#	17253
#	61627
#	102780
#	129057
#	153537
#	176756
#	196032
#
# Disc length: 3089 seconds
#
# Revision: 0
# Processed by: cddbd v1.5.2PL0 Copyright (c) Steve Scherf et al.
# Submitted via: CDex 1.79
#
DISCID=500c0f08
DTITLE=Schiller - Zeitreise (III - X) (Limited Super Deluxe Edition) Disc 5
DYEAR=2016
DGENRE=New Age
TTITLE0=Zeitreise III
TTITLE1=Zeitreise IV
TTITLE2=Zeitreise V
TTITLE3=Zeitreise VI
TTITLE4=Zeitreise VII
TTITLE5=Zeitreise VIII
TTITLE6=Zeitreise IX
TTITLE7=Zeitreise X
EXTD=YEAR: 2016
EXTT0=
EXTT1=
EXTT2=
EXTT3=
EXTT4=
EXTT5=
EXTT6=
EXTT7=
PLAYORDER=
